<svg xmlns="http://www.w3.org/2000/svg" enable-background="new 0 0 100 100" viewBox="0 0 100 100"><path fill="#9be2ff" d="M70.378,22.244h-36.75c-5.174,0-9.384,4.21-9.384,9.384v36.75c0,5.174,4.21,9.384,9.384,9.384h36.75
		c5.174,0,9.384-4.21,9.384-9.384v-36.75C79.762,26.454,75.552,22.244,70.378,22.244z M76.197,67.881
		c0,3.482-2.833,6.315-6.315,6.315H34.125c-3.482,0-6.315-2.833-6.315-6.315V32.125c0-3.482,2.833-6.316,6.315-6.316h35.757
		c3.482,0,6.315,2.833,6.315,6.316V67.881z"/><path fill="#9be2ff" d="M69.882,28.809H34.125c-1.828,0-3.315,1.487-3.315,3.316v35.756c0,1.828,1.487,3.315,3.315,3.315
		h35.757c1.828,0,3.315-1.487,3.315-3.315V32.125C73.197,30.296,71.71,28.809,69.882,28.809z M62.394,54.63
		c2.309,0,4.187,1.878,4.187,4.186c0,2.309-1.878,4.187-4.187,4.187s-4.187-1.878-4.187-4.187c0-0.604,0.134-1.174,0.365-1.693
		l-3.371-3.371c-0.012-0.012-0.016-0.029-0.027-0.041c-0.117-0.125-0.216-0.269-0.285-0.428c-0.012-0.029-0.019-0.058-0.029-0.087
		c-0.052-0.144-0.084-0.298-0.089-0.459c-0.001-0.022-0.005-0.043-0.005-0.065V38.503c0-0.829,0.672-1.5,1.5-1.5
		c0.828,0,1.5,0.671,1.5,1.5v13.571L60.691,55C61.213,54.767,61.786,54.63,62.394,54.63z M39.125,69.83h-4.497
		c-1.353,0-2.452-1.1-2.452-2.452v-34.75c0-1.352,1.1-2.452,2.452-2.452H59.25c0.553,0,1,0.448,1,1s-0.447,1-1,1H34.628
		c-0.249,0-0.452,0.203-0.452,0.452v34.75c0,0.249,0.203,0.452,0.452,0.452h4.497c0.553,0,1,0.448,1,1S39.678,69.83,39.125,69.83z
		 M53.868,58.816c0,2.309-1.878,4.187-4.187,4.187s-4.187-1.878-4.187-4.187c0-2.2,1.711-3.989,3.87-4.154l1.123-3.721V38.503
		c0-0.829,0.672-1.5,1.5-1.5s1.5,0.671,1.5,1.5v12.656c0,0.016-0.004,0.03-0.005,0.046c-0.002,0.061-0.009,0.122-0.018,0.183
		c-0.007,0.046-0.015,0.09-0.026,0.134c-0.006,0.022-0.006,0.045-0.013,0.067l-1.188,3.936
		C53.222,56.292,53.868,57.475,53.868,58.816z M41.612,57.941c-2.309,0-4.187-1.878-4.187-4.187s1.878-4.187,4.187-4.187
		c0.605,0,1.177,0.135,1.697,0.367l2.902-2.902v-8.53c0-0.829,0.672-1.5,1.5-1.5s1.5,0.671,1.5,1.5v9.153
		c0,0.42-0.174,0.799-0.452,1.071l-3.329,3.329c0.233,0.521,0.368,1.093,0.368,1.699C45.799,56.063,43.921,57.941,41.612,57.941z
		 M71.83,67.378c0,1.352-1.1,2.452-2.452,2.452H46.25c-0.553,0-1-0.448-1-1s0.447-1,1-1h23.128c0.249,0,0.452-0.203,0.452-0.452
		v-34.75c0-0.25-0.203-0.452-0.452-0.452h-4.877c-0.553,0-1-0.448-1-1s0.447-1,1-1h4.877c1.353,0,2.452,1.1,2.452,2.452V67.378z"/><path fill="#9be2ff" d="M42.448,52.917c-0.001-0.001-0.002-0.003-0.003-0.005c-0.214-0.212-0.508-0.344-0.833-0.344
		c-0.654,0-1.187,0.532-1.187,1.187s0.532,1.187,1.187,1.187s1.187-0.532,1.187-1.187c0-0.325-0.132-0.62-0.345-0.834
		C42.452,52.919,42.45,52.919,42.448,52.917z"/><circle cx="49.682" cy="58.817" r="1.186" fill="#9be2ff"/><circle cx="62.394" cy="58.817" r="1.186" fill="#9be2ff"/><path fill="#053c99" d="M93.5,31.667c0.828,0,1.5-0.671,1.5-1.5s-0.672-1.5-1.5-1.5H81.421c-1.135-5-5.072-8.94-10.07-10.08
		V6.5c0-0.829-0.672-1.5-1.5-1.5s-1.5,0.671-1.5,1.5v11.744h-6.93V6.5c0-0.829-0.672-1.5-1.5-1.5s-1.5,0.671-1.5,1.5v11.744h-6.912
		V6.5c0-0.829-0.672-1.5-1.5-1.5s-1.5,0.671-1.5,1.5v11.744h-6.93V6.5c0-0.829-0.672-1.5-1.5-1.5s-1.5,0.671-1.5,1.5v11.744h-6.911
		V6.5c0-0.829-0.672-1.5-1.5-1.5s-1.5,0.671-1.5,1.5v12.085c-5.005,1.136-8.947,5.078-10.083,10.083H6.5c-0.828,0-1.5,0.671-1.5,1.5
		s0.672,1.5,1.5,1.5h11.744v6.912H6.5c-0.828,0-1.5,0.671-1.5,1.5s0.672,1.5,1.5,1.5h11.744v6.93H6.5c-0.828,0-1.5,0.671-1.5,1.5
		s0.672,1.5,1.5,1.5h11.744v6.912H6.5c-0.828,0-1.5,0.671-1.5,1.5s0.672,1.5,1.5,1.5h11.744v6.93H6.5c-0.828,0-1.5,0.671-1.5,1.5
		s0.672,1.5,1.5,1.5h12.088c1.14,4.999,5.079,8.936,10.08,10.071V93.5c0,0.829,0.672,1.5,1.5,1.5s1.5-0.671,1.5-1.5V81.762h6.911
		V93.5c0,0.829,0.672,1.5,1.5,1.5s1.5-0.671,1.5-1.5V81.762h6.93V93.5c0,0.829,0.672,1.5,1.5,1.5s1.5-0.671,1.5-1.5V81.762h6.912
		V93.5c0,0.829,0.672,1.5,1.5,1.5s1.5-0.671,1.5-1.5V81.762h6.93V93.5c0,0.829,0.672,1.5,1.5,1.5s1.5-0.671,1.5-1.5V81.418
		c4.994-1.139,8.928-5.073,10.067-10.067H93.5c0.828,0,1.5-0.671,1.5-1.5s-0.672-1.5-1.5-1.5H81.762v-6.93H93.5
		c0.828,0,1.5-0.671,1.5-1.5s-0.672-1.5-1.5-1.5H81.762v-6.912H93.5c0.828,0,1.5-0.671,1.5-1.5s-0.672-1.5-1.5-1.5H81.762v-6.93
		H93.5c0.828,0,1.5-0.671,1.5-1.5s-0.672-1.5-1.5-1.5H81.762v-6.912H93.5z M77.762,68.378c0,5.174-4.21,9.384-9.384,9.384h-36.75
		c-5.174,0-9.384-4.21-9.384-9.384v-36.75c0-5.174,4.21-9.384,9.384-9.384h36.75c5.174,0,9.384,4.21,9.384,9.384V68.378z"/><path fill="#053c99" d="M67.882,25.809H32.125c-3.482,0-6.315,2.833-6.315,6.316v35.756c0,3.482,2.833,6.315,6.315,6.315
		h35.757c3.482,0,6.315-2.833,6.315-6.315V32.125C74.197,28.643,71.364,25.809,67.882,25.809z M71.197,67.881
		c0,1.828-1.487,3.315-3.315,3.315H32.125c-1.828,0-3.315-1.487-3.315-3.315V32.125c0-1.829,1.487-3.316,3.315-3.316h35.757
		c1.828,0,3.315,1.487,3.315,3.316V67.881z"/><path fill="#053c99" d="M67.378 30.176h-4.877c-.553 0-1 .448-1 1s.447 1 1 1h4.877c.249 0 .452.203.452.452v34.75c0 .249-.203.452-.452.452H44.25c-.553 0-1 .448-1 1s.447 1 1 1h23.128c1.353 0 2.452-1.1 2.452-2.452v-34.75C69.83 31.276 68.73 30.176 67.378 30.176zM37.125 67.83h-4.497c-.249 0-.452-.203-.452-.452v-34.75c0-.25.203-.452.452-.452H57.25c.553 0 1-.448 1-1s-.447-1-1-1H32.628c-1.353 0-2.452 1.1-2.452 2.452v34.75c0 1.352 1.1 2.452 2.452 2.452h4.497c.553 0 1-.448 1-1S37.678 67.83 37.125 67.83z"/><path fill="#053c99" d="M43.431 52.056l3.329-3.329c.278-.272.452-.651.452-1.071v-9.153c0-.829-.672-1.5-1.5-1.5s-1.5.671-1.5 1.5v8.53l-2.902 2.902c-.52-.232-1.092-.367-1.697-.367-2.309 0-4.187 1.878-4.187 4.187s1.878 4.187 4.187 4.187 4.187-1.878 4.187-4.187C43.799 53.149 43.663 52.576 43.431 52.056zM39.612 54.941c-.654 0-1.187-.532-1.187-1.187s.532-1.187 1.187-1.187c.325 0 .618.132.833.344.001.001.002.003.003.005.002.002.004.002.006.004.213.215.345.509.345.834C40.799 54.409 40.267 54.941 39.612 54.941zM55.766 38.503c0-.829-.672-1.5-1.5-1.5-.828 0-1.5.671-1.5 1.5v14.168c0 .022.004.043.005.065.005.161.037.314.089.459.01.029.017.058.029.087.069.16.167.303.285.428.012.012.015.029.027.041l3.371 3.371c-.231.519-.365 1.09-.365 1.693 0 2.309 1.878 4.187 4.187 4.187s4.187-1.878 4.187-4.187c0-2.308-1.878-4.186-4.187-4.186-.607 0-1.181.136-1.702.37l-2.926-2.926V38.503zM60.394 57.63c.654 0 1.187.532 1.187 1.186 0 .654-.532 1.187-1.187 1.187s-1.187-.532-1.187-1.187C59.207 58.163 59.739 57.63 60.394 57.63z"/><path fill="#053c99" d="M51.439,51.522c0.011-0.044,0.019-0.089,0.026-0.134c0.01-0.061,0.016-0.122,0.018-0.183
		c0-0.016,0.005-0.03,0.005-0.046V38.503c0-0.829-0.672-1.5-1.5-1.5s-1.5,0.671-1.5,1.5v12.439l-1.123,3.721
		c-2.159,0.165-3.87,1.954-3.87,4.154c0,2.309,1.878,4.187,4.187,4.187s4.187-1.878,4.187-4.187c0-1.342-0.646-2.525-1.631-3.291
		l1.188-3.936C51.432,51.567,51.433,51.544,51.439,51.522z M47.682,60.003c-0.654,0-1.187-0.532-1.187-1.187
		c0-0.654,0.532-1.186,1.187-1.186s1.187,0.532,1.187,1.186C48.868,59.471,48.336,60.003,47.682,60.003z"/></svg>