<svg xmlns="http://www.w3.org/2000/svg" enable-background="new 0 0 100 100" viewBox="0 0 100 100">
    <path id="left_hand_fill" fill="#9be2ff" d="M17.545,66.702c-0.048-0.001-0.096-0.005-0.143-0.01c-1.345,0.002-2.591,0.52-3.535,1.458
			c-0.938,0.936-1.455,2.184-1.455,3.51v2.883c0,1.557,1.271,2.824,2.832,2.824h0.133v-4.333c0-1.104,0.896-2,2-2s2,0.896,2,2v4.333
			h0.141c1.558,0,2.824-1.267,2.824-2.824V71.66C22.342,68.965,20.234,66.788,17.545,66.702z"/>
    <path fill="#5dd1ff" d="M67.481,80.091v-11.02h-0.98c-0.828,0-1.5-0.671-1.5-1.5s0.672-1.5,1.5-1.5h0.98v-4.889
			c-2.086-0.787-3.577-2.799-3.577-5.157c0-1.928,0.997-3.626,2.5-4.612c-0.779-0.87-1.903-1.41-3.123-1.41H33.508
			c-1.232,0-2.367,0.551-3.149,1.437c1.48,0.99,2.457,2.676,2.457,4.586c0,2.335-1.461,4.331-3.516,5.134v4.911h0.981
			c0.828,0,1.5,0.671,1.5,1.5s-0.672,1.5-1.5,1.5H29.3v11.012c0,0.458,0.372,0.83,0.83,0.83h36.529
			C67.112,80.914,67.481,80.545,67.481,80.091z M41.468,76.392c-1.075,0-1.946-0.871-1.946-1.946s0.871-1.946,1.946-1.946
			c1.075,0,1.946,0.871,1.946,1.946S42.543,76.392,41.468,76.392z M48.391,76.392c-1.075,0-1.946-0.871-1.946-1.946
			s0.871-1.946,1.946-1.946s1.946,0.871,1.946,1.946S49.466,76.392,48.391,76.392z M55.314,76.392c-1.075,0-1.946-0.871-1.946-1.946
			S54.24,72.5,55.314,72.5s1.946,0.871,1.946,1.946S56.389,76.392,55.314,76.392z M47.413,68.164c-0.828,0-1.5-0.671-1.5-1.5
			s0.672-1.5,1.5-1.5h10.364c0.42,0,0.761-0.341,0.761-0.76v-3.064h-0.719l-1.104,2.315c-0.165,0.348-0.517,0.57-0.902,0.57
			s-0.736-0.222-0.902-0.569l-1.904-3.992l-0.62,1.15c-0.021,0.04-0.057,0.064-0.083,0.1c-0.042,0.059-0.082,0.116-0.136,0.165
			c-0.047,0.043-0.1,0.072-0.154,0.104c-0.056,0.034-0.108,0.067-0.17,0.089c-0.065,0.023-0.132,0.031-0.201,0.041
			c-0.046,0.007-0.087,0.027-0.135,0.027h-4.496l-1.104,2.316c-0.166,0.348-0.517,0.569-0.902,0.569s-0.736-0.222-0.902-0.569
			l-1.85-3.878l-1.849,3.877c-0.166,0.348-0.517,0.57-0.902,0.57s-0.737-0.222-0.902-0.57l-0.354-0.742v1.491
			c0,0.419,0.341,0.76,0.76,0.76h2.846c0.828,0,1.5,0.671,1.5,1.5s-0.672,1.5-1.5,1.5h-2.846c-2.073,0-3.76-1.687-3.76-3.76v-8.128
			c0-2.073,1.687-3.76,3.76-3.76h12.762c0.828,0,1.5,0.671,1.5,1.5s-0.672,1.5-1.5,1.5H39.005c-0.419,0-0.76,0.341-0.76,0.76v3.477
			h0.078c0.386,0,0.737,0.222,0.902,0.57l0.275,0.578l1.849-3.876c0.166-0.348,0.517-0.57,0.902-0.57s0.736,0.222,0.902,0.569
			l1.85,3.878l0.474-0.993c0.166-0.348,0.517-0.569,0.902-0.569h4.53l1.271-2.36c0.178-0.332,0.505-0.551,0.904-0.525
			c0.377,0.009,0.716,0.229,0.878,0.569l1.85,3.878l0.473-0.992c0.165-0.348,0.517-0.57,0.902-0.57h1.35v-3.064
			c0-0.419-0.341-0.76-0.761-0.76h-1.013c-0.828,0-1.5-0.671-1.5-1.5s0.672-1.5,1.5-1.5h1.013c2.073,0,3.761,1.687,3.761,3.76v8.128
			c0,2.073-1.688,3.76-3.761,3.76H47.413z M64.431,75.385h-0.767v1.135c0,0.536-0.478,0.971-1.067,0.971s-1.067-0.435-1.067-0.971
			v-1.135h-0.871c-0.59,0-1.067-0.435-1.067-0.971s0.478-0.971,1.067-0.971h0.871v-1.134c0-0.536,0.478-0.971,1.067-0.971
			s1.067,0.435,1.067,0.971v1.134h0.767c0.59,0,1.067,0.435,1.067,0.971S65.021,75.385,64.431,75.385z M56.629,66.692H40.78
			c-1.65,0-3-1.35-3-3v-6.163c0-1.65,1.35-3,3-3h15.849c1.65,0,3,1.35,3,3v6.163C59.629,65.342,58.279,66.692,56.629,66.692z"/>

    <path id="right_hand_and_wheels_fill" fill="#9be2ff" d="M66.659 84.914h-1.793c.407.366.668.891.668 1.482 0 1.105-.895 2-2 2s-2-.895-2-2c0-.591.261-1.116.668-1.482h-3.014c-.164.477-.258.976-.258 1.486 0 2.537 2.063 4.6 4.601 4.6 2.542 0 4.609-2.063 4.609-4.6 0-.568-.111-1.124-.312-1.645C67.451 84.849 67.064 84.914 66.659 84.914zM69.42 54.511c-.836 0-1.516.68-1.516 1.515 0 .833.676 1.51 1.508 1.514.024-.001.046-.007.07-.007.003 0 .005.001.008.001.802-.037 1.445-.696 1.445-1.508C70.935 55.191 70.255 54.511 69.42 54.511zM83.005 38.481c-.041.002-.08-.007-.12-.007v4.589c0 1.104-.896 2-2 2s-2-.896-2-2v-4.554c-.049.004-.096.016-.146.016-1.558.016-2.813 1.293-2.797 2.846l.029 2.879c.014 1.322.543 2.562 1.492 3.492.935.91 2.164 1.412 3.462 1.412.017 0 .033 0 .051 0 .045-.005.123-.007.168-.008 2.683-.113 4.764-2.308 4.736-4.997l-.029-2.878C85.835 39.715 84.545 38.506 83.005 38.481zM49.723 84.914c.407.366.668.891.668 1.482 0 1.105-.895 2-2 2s-2-.895-2-2c0-.591.261-1.116.668-1.482h-3.011c-.164.477-.258.976-.258 1.486 0 2.537 2.063 4.6 4.6 4.6 2.542 0 4.61-2.063 4.61-4.6 0-.509-.094-1.009-.258-1.486H49.723zM27.3 54.511c-.835 0-1.515.68-1.515 1.515 0 .834.677 1.512 1.51 1.515.002 0 .003 0 .005 0s.003 0 .005 0c.834-.003 1.511-.681 1.511-1.515C28.815 55.191 28.136 54.511 27.3 54.511zM34.581 84.914c.407.366.668.891.668 1.482 0 1.105-.895 2-2 2-1.105 0-2-.895-2-2 0-.591.261-1.116.668-1.482H30.13c-.407 0-.797-.066-1.175-.161-.203.521-.315 1.078-.315 1.647 0 2.537 2.068 4.6 4.61 4.6 2.536 0 4.6-2.063 4.6-4.6 0-.51-.094-1.009-.258-1.486H34.581z"/>
    <path id="eyes_and_plus" fill="#053c99" d="M64.431 73.443h-.767v-1.134c0-.536-.478-.971-1.067-.971s-1.067.435-1.067.971v1.134h-.871c-.59 0-1.067.435-1.067.971s.478.971 1.067.971h.871v1.135c0 .536.478.971 1.067.971s1.067-.435 1.067-.971v-1.135h.767c.59 0 1.067-.435 1.067-.971S65.021 73.443 64.431 73.443zM61.538 64.403v-8.128c0-2.073-1.688-3.76-3.761-3.76h-1.013c-.828 0-1.5.671-1.5 1.5s.672 1.5 1.5 1.5h1.013c.42 0 .761.341.761.76v3.064h-1.35c-.386 0-.737.222-.902.57l-.473.992-1.85-3.878c-.162-.34-.501-.56-.878-.569-.399-.025-.727.193-.904.525l-1.271 2.36h-4.53c-.386 0-.736.222-.902.569l-.474.993-1.85-3.878c-.166-.348-.517-.569-.902-.569s-.736.222-.902.57L39.501 60.9l-.275-.578c-.165-.348-.517-.57-.902-.57h-.078v-3.477c0-.419.341-.76.76-.76h12.762c.828 0 1.5-.671 1.5-1.5s-.672-1.5-1.5-1.5H39.005c-2.073 0-3.76 1.687-3.76 3.76v8.128c0 2.073 1.687 3.76 3.76 3.76h2.846c.828 0 1.5-.671 1.5-1.5s-.672-1.5-1.5-1.5h-2.846c-.419 0-.76-.341-.76-.76v-1.491l.354.742c.165.348.517.57.902.57s.736-.222.902-.57l1.849-3.877 1.85 3.878c.166.348.517.569.902.569s.736-.222.902-.569l1.104-2.316h4.496c.048 0 .089-.021.135-.027.069-.01.136-.017.201-.041.062-.022.115-.056.17-.089.054-.032.107-.062.154-.104.054-.048.094-.106.136-.165.026-.036.062-.06.083-.1l.62-1.15 1.904 3.992c.166.348.517.569.902.569s.737-.222.902-.57l1.104-2.315h.719v3.064c0 .419-.341.76-.761.76H47.413c-.828 0-1.5.671-1.5 1.5s.672 1.5 1.5 1.5h10.364C59.851 68.164 61.538 66.477 61.538 64.403z"/>
    <circle cx="48.391" cy="74.446" r="1.946" fill="#053c99"/>
    <circle cx="55.314" cy="74.446" r="1.946" fill="#053c99"/>
    <circle cx="41.468" cy="74.446" r="1.946" fill="#053c99"/>
    <path id="body" fill="#053c99" d="M91.027 10.897l-2.019 2.019c-.586.585-.586 1.536 0 2.121.293.293.677.439 1.061.439s.768-.146 1.061-.439l2.019-2.019c.586-.585.586-1.536 0-2.121C92.562 10.312 91.613 10.312 91.027 10.897zM78.911 10.854c.828 0 1.5-.671 1.5-1.5V6.5c0-.829-.672-1.5-1.5-1.5s-1.5.671-1.5 1.5v2.854C77.411 10.183 78.083 10.854 78.911 10.854zM66.691 15.037c.293.293.677.439 1.061.439s.768-.146 1.061-.439c.586-.585.586-1.536 0-2.121l-2.019-2.019c-.586-.586-1.535-.586-2.121 0-.586.585-.586 1.536 0 2.121L66.691 15.037zM87.044 16.025c-.362-.599-1.012-.964-1.711-.964H72.437c-.699 0-1.349.366-1.711.964l-5.528 9.129c-.488.807-.347 1.846.341 2.493l8.118 7.636c-2.224 1.144-3.741 3.465-3.715 6.129l.029 2.879c.024 2.39.98 4.63 2.697 6.313.576.561 1.218 1.029 1.901 1.411-.173.214-.307.465-.381.749-.057.218-.066.436-.051.65-.109.049-.216.105-.317.175-.101.07-.191.15-.275.234-.197-.092-.408-.16-.636-.184-.177-.018-.348-.005-.516.021-.714-1.493-2.076-2.616-3.723-3-1.342-2.797-4.208-4.656-7.389-4.656h-4.604V32.941h2.104c1.104 0 2-.896 2-2v-4.166c0-3.371-2.743-6.113-6.114-6.113s-6.113 2.742-6.113 6.113v4.166c0 1.104.896 2 2 2h2.123v13.063H40.105V33.189h2.326c1.104 0 2-.896 2-2v-4.381c0-3.488-2.838-6.326-6.326-6.326-3.487 0-6.325 2.838-6.325 6.326v4.381c0 1.104.896 2 2 2h2.325v12.815h-4.598c-3.172 0-6.034 1.851-7.388 4.637-1.966.43-3.54 1.911-4.106 3.822-.543-.192-1.162-.158-1.695.161-.947.569-1.254 1.797-.686 2.744l.646 1.077-1.015-.747c-.889-.655-2.142-.463-2.796.424-.655.889-.465 2.142.425 2.796l1.018.75-1.226-.295c-1.07-.254-2.154.403-2.412 1.478-.034.142-.05.284-.053.424-1.174.443-2.257 1.126-3.178 2.041-1.696 1.695-2.631 3.948-2.631 6.343v2.883c0 3.763 3.064 6.824 6.832 6.824h4.273c2.438 0 4.575-1.289 5.782-3.217v1.934c0 .74.181 1.433.479 2.06-.74 1.285-1.139 2.751-1.139 4.256 0 4.742 3.862 8.6 8.61 8.6 3.268 0 6.115-1.833 7.57-4.524C40.275 93.167 43.122 95 46.39 95c3.268 0 6.117-1.828 7.575-4.514C55.421 93.172 58.266 95 61.53 95c4.747 0 8.609-3.858 8.609-8.6 0-1.503-.397-2.969-1.134-4.256.296-.625.476-1.316.476-2.052V61.138c.514-.208.991-.49 1.415-.835.319.346.755.588 1.26.64.069.007.139.011.207.011 1.013 0 1.882-.766 1.987-1.795l.116-1.121.749 1.083c.388.562 1.012.862 1.646.862.393 0 .788-.115 1.136-.355.908-.628 1.136-1.874.507-2.783l-.749-1.083 1.098.287c.17.044.34.065.507.065.889 0 1.699-.596 1.935-1.495.16-.614.009-1.231-.344-1.702 4.035-.918 6.973-4.511 6.93-8.809l-.029-2.879c-.027-2.609-1.526-4.862-3.696-5.985l8.076-7.597c.688-.647.829-1.686.341-2.493L87.044 16.025zM20.342 74.543c0 1.557-1.267 2.824-2.824 2.824h-.141v-4.333c0-1.104-.896-2-2-2s-2 .896-2 2v4.333h-.133c-1.562 0-2.832-1.267-2.832-2.824V71.66c0-1.326.518-2.574 1.455-3.51.944-.938 2.19-1.456 3.535-1.458.047.005.095.008.143.01 2.689.086 4.797 2.264 4.797 4.958V74.543zM23.3 67.441c-.866-1.635-2.228-2.958-3.89-3.789-.034-.148-.085-.289-.151-.424.435-.109.838-.361 1.124-.75.29-.394.405-.858.377-1.311.104.016.206.04.312.04.351 0 .705-.092 1.027-.286.106-.064.202-.139.292-.218.287.179.59.333.909.458V67.441zM52.554 28.941v-2.166c0-1.165.948-2.113 2.113-2.113.041 0 .079.01.12.012v4.267H52.554zM35.78 29.189v-2.381c0-1.282 1.043-2.326 2.325-2.326 0 0 0 0 0 0l0 4.707H35.78zM25.305 57.541c-.002 0-.003 0-.005 0s-.003 0-.005 0c-.833-.003-1.51-.681-1.51-1.515 0-.835.68-1.515 1.515-1.515.836 0 1.516.68 1.516 1.515C26.815 56.86 26.138 57.538 25.305 57.541zM31.25 91c-2.542 0-4.61-2.063-4.61-4.6 0-.57.112-1.126.315-1.647.378.095.768.161 1.175.161h1.787c-.407.366-.668.891-.668 1.482 0 1.105.895 2 2 2 1.105 0 2-.895 2-2 0-.591-.261-1.116-.668-1.482h3.011c.164.477.258.976.258 1.486C35.85 88.937 33.786 91 31.25 91zM46.39 91c-2.536 0-4.6-2.063-4.6-4.6 0-.509.094-1.009.258-1.486h3.011c-.407.366-.668.891-.668 1.482 0 1.105.895 2 2 2s2-.895 2-2c0-.591-.261-1.116-.668-1.482h3.018C50.906 85.391 51 85.89 51 86.4 51 88.937 48.932 91 46.39 91zM28.13 80.914c-.458 0-.83-.373-.83-.83V69.072h.981c.828 0 1.5-.671 1.5-1.5s-.672-1.5-1.5-1.5H27.3v-4.911c2.054-.803 3.516-2.799 3.516-5.134 0-1.91-.977-3.596-2.457-4.586.783-.885 1.917-1.437 3.149-1.437h29.773c1.221 0 2.345.54 3.123 1.41-1.504.986-2.5 2.684-2.5 4.612 0 2.358 1.491 4.37 3.577 5.157v4.889h-.98c-.828 0-1.5.671-1.5 1.5s.672 1.5 1.5 1.5h.98v11.02c0 .454-.369.823-.822.823H28.13zM61.53 91c-2.537 0-4.601-2.063-4.601-4.6 0-.509.094-1.009.258-1.486h3.014c-.407.366-.668.891-.668 1.482 0 1.105.895 2 2 2s2-.895 2-2c0-.591-.261-1.116-.668-1.482h1.793c.405 0 .792-.065 1.168-.16.201.521.312 1.077.312 1.645C66.14 88.937 64.072 91 61.53 91zM67.489 57.534c-.003 0-.005-.001-.008-.001-.024 0-.046.006-.07.007-.832-.004-1.508-.682-1.508-1.514 0-.835.68-1.515 1.516-1.515.835 0 1.515.68 1.515 1.515C68.935 56.838 68.292 57.497 67.489 57.534zM83.984 19.061l-.683 4.082-2.202-4.082H83.984zM82.133 25.189h-6.5l3.252-6.023L82.133 25.189zM82.276 27.189l-3.214 7.353-.177.167-.187-.175-3.209-7.344H82.276zM76.669 19.061l-2.204 4.082-.681-4.082H76.669zM72.147 21.4l.632 3.79h-2.927L72.147 21.4zM70.89 27.189h2.417l1.686 3.859L70.89 27.189zM79.144 49.145c-.045.001-.123.003-.168.008-.018 0-.034 0-.051 0-1.298 0-2.527-.502-3.462-1.412-.949-.93-1.479-2.17-1.492-3.492l-.029-2.879c-.016-1.553 1.239-2.83 2.797-2.846.05 0 .097-.012.146-.016v4.554c0 1.104.896 2 2 2s2-.896 2-2v-4.589c.041.001.079.009.12.007 1.54.025 2.83 1.234 2.846 2.789l.029 2.878C83.907 46.837 81.826 49.032 79.144 49.145zM82.767 31.056l1.69-3.867h2.421L82.767 31.056zM84.986 25.189l.635-3.792 2.296 3.792H84.986z"/>
  </svg>